<svg width="43" height="32" viewBox="0 0 43 32" fill="none" xmlns="http://www.w3.org/2000/svg">
<g opacity="0.4">
<path d="M22.2816 5.33334C22.8635 5.33338 23.3359 5.6751 23.3362 6.09702V9.30405C23.3362 9.8176 23.9257 10.2434 24.636 10.2435C25.3638 10.2435 25.9359 9.81765 25.9359 9.30405V6.09702C25.9362 5.67515 26.4089 5.33347 26.9925 5.33334H32.6419C36.3845 5.33347 39.4163 7.52605 39.4163 10.2318V13.388C39.4163 13.6386 39.278 13.8767 39.0355 14.0521C38.793 14.2274 38.4639 14.3274 38.1175 14.3275C36.8354 14.3275 35.7954 15.0791 35.7952 15.9935C35.7952 16.9142 36.823 17.6622 38.0931 17.6722C38.8084 17.6773 39.4159 18.038 39.4163 18.555V21.7689C39.4161 24.4733 36.3844 26.6662 32.6419 26.6664H26.9925C26.4088 26.6662 25.936 26.3247 25.9359 25.9027V23.1966C25.9358 22.6705 25.3638 22.2572 24.636 22.2572C23.9258 22.2573 23.3363 22.6706 23.3362 23.1966V25.9027C23.3361 26.3247 22.8636 26.6663 22.2816 26.6664H10.3587C6.63339 26.6664 3.58349 24.4746 3.58331 21.7689V18.555C3.58369 18.0379 4.19212 17.6772 4.90753 17.6722C6.17919 17.662 7.20441 16.9141 7.20441 15.9935C7.20422 15.1043 6.19977 14.4282 4.88312 14.4281C4.53657 14.4281 4.20676 14.3281 3.96417 14.1527C3.7217 13.9774 3.58341 13.739 3.58331 13.4886V10.2435C3.58361 7.54297 6.63985 5.3335 10.3753 5.33334H22.2816ZM24.636 12.9369C23.9259 12.9369 23.3365 13.3629 23.3362 13.8763V18.8871C23.3362 19.4006 23.9257 19.8264 24.636 19.8265C25.3638 19.8265 25.9359 19.4007 25.9359 18.8871V13.8763C25.9356 13.3629 25.3636 12.9369 24.636 12.9369Z" fill="#030229"/>
</g>
</svg>
