<svg width="36" height="29" viewBox="0 0 36 29" fill="none" xmlns="http://www.w3.org/2000/svg">
<path d="M26.4316 0.932007C32.5359 0.932039 35.9821 3.63954 36 8.41248V21.5199C36 26.2914 32.5359 29.0003 26.4316 29.0004H9.66895C3.56476 29.0003 0.102547 26.2914 0.102539 21.5199V8.41248C0.102539 3.63958 3.56475 0.932086 9.66895 0.932007H26.4316ZM10.5664 11.3314C10.0818 11.0929 9.47009 11.0929 8.9873 11.3314C8.50091 11.57 8.23329 12.0034 8.28711 12.4398V22.1371C8.35711 22.7405 9.0036 23.1898 9.77539 23.1898C10.5489 23.1897 11.1929 22.7405 11.2646 22.1371V12.4398C11.3203 12.0034 11.0492 11.57 10.5664 11.3314ZM18.9492 6.72791C18.4449 6.48936 17.8343 6.48944 17.3516 6.72791C16.8653 6.965 16.5976 7.40139 16.6494 7.8363V22.1371C16.741 22.7405 17.3858 23.1898 18.1396 23.1898C18.9131 23.1897 19.5571 22.7405 19.6289 22.1371V7.8363C19.7005 7.40147 19.4335 6.96504 18.9492 6.72791ZM27.1855 16.4252C26.7028 16.1866 26.0924 16.1867 25.5898 16.4252C25.1034 16.6637 24.8364 17.0841 24.9082 17.5345V22.1371C24.98 22.7405 25.6239 23.1898 26.3975 23.1898C27.1513 23.1898 27.7962 22.7405 27.8877 22.1371V17.5345C27.9397 17.0841 27.672 16.6637 27.1855 16.4252Z" fill="#9A9AA9"/>
</svg>
