<svg width="44" height="44" viewBox="0 0 44 44" fill="none" xmlns="http://www.w3.org/2000/svg">
<path d="M22 38.5C18.15 38.5 14.7431 37.3316 11.7792 34.9947C8.81528 32.6578 6.89028 29.6707 6.00417 26.0333C5.88194 25.575 5.97361 25.1552 6.27917 24.7738C6.58472 24.3925 6.99722 24.1707 7.51667 24.1083C8.00556 24.0472 8.44861 24.1389 8.84583 24.3833C9.24306 24.6278 9.51806 24.9944 9.67083 25.4833C10.4042 28.2333 11.9167 30.4792 14.2083 32.2208C16.5 33.9625 19.0972 34.8333 22 34.8333C25.575 34.8333 28.6079 33.5885 31.0988 31.0988C33.5897 28.6092 34.8346 25.5762 34.8333 22C34.8321 18.4238 33.5873 15.3914 31.0988 12.903C28.6104 10.4146 25.5774 9.16911 22 9.16667C19.8917 9.16667 17.9208 9.65556 16.0875 10.6333C14.2542 11.6111 12.7111 12.9556 11.4583 14.6667H14.6667C15.1861 14.6667 15.6218 14.8427 15.9738 15.1947C16.3258 15.5467 16.5012 15.9818 16.5 16.5C16.4988 17.0182 16.3228 17.4539 15.972 17.8072C15.6212 18.1604 15.1861 18.3358 14.6667 18.3333H7.33333C6.81389 18.3333 6.37878 18.1573 6.028 17.8053C5.67722 17.4533 5.50122 17.0182 5.5 16.5V9.16667C5.5 8.64722 5.676 8.21211 6.028 7.86133C6.38 7.51056 6.81511 7.33456 7.33333 7.33333C7.85156 7.33211 8.28728 7.50811 8.6405 7.86133C8.99372 8.21456 9.16911 8.64967 9.16667 9.16667V11.6417C10.725 9.68611 12.6274 8.17361 14.8738 7.10417C17.1203 6.03472 19.4957 5.5 22 5.5C24.2917 5.5 26.4385 5.93572 28.4405 6.80717C30.4425 7.67861 32.1842 8.85439 33.6655 10.3345C35.1468 11.8146 36.3232 13.5563 37.1947 15.5595C38.0661 17.5627 38.5012 19.7096 38.5 22C38.4988 24.2904 38.0637 26.4373 37.1947 28.4405C36.3257 30.4437 35.1493 32.1854 33.6655 33.6655C32.1817 35.1456 30.4401 36.322 28.4405 37.1947C26.4409 38.0673 24.2941 38.5024 22 38.5ZM23.8333 21.2667L28.4167 25.85C28.7528 26.1861 28.9208 26.6139 28.9208 27.1333C28.9208 27.6528 28.7528 28.0806 28.4167 28.4167C28.0806 28.7528 27.6528 28.9208 27.1333 28.9208C26.6139 28.9208 26.1861 28.7528 25.85 28.4167L20.7167 23.2833C20.5333 23.1 20.3958 22.8941 20.3042 22.6655C20.2125 22.4369 20.1667 22.1998 20.1667 21.9542V14.6667C20.1667 14.1472 20.3427 13.7121 20.6947 13.3613C21.0467 13.0106 21.4818 12.8346 22 12.8333C22.5182 12.8321 22.9539 13.0081 23.3072 13.3613C23.6604 13.7146 23.8358 14.1497 23.8333 14.6667V21.2667Z" fill="#9A9AA9"/>
</svg>
