<svg width="39" height="36" viewBox="0 0 39 36" fill="none" xmlns="http://www.w3.org/2000/svg">
<path d="M11.5137 20.2451C14.2559 20.2451 16.454 22.2593 16.4541 24.7656V30.7832C16.454 33.2719 14.256 35.3018 11.5137 35.3018H4.94043C2.21757 35.3018 7.69849e-05 33.2719 0 30.7832V24.7656C0.000145506 22.2593 2.21761 20.2451 4.94043 20.2451H11.5137ZM33.959 20.2451C36.6817 20.2453 38.8983 22.2594 38.8984 24.7656V30.7832C38.8984 33.2718 36.6817 35.3016 33.959 35.3018H27.3848C24.6425 35.3017 22.4444 33.2719 22.4443 30.7832V24.7656C22.4445 22.2593 24.6425 20.2451 27.3848 20.2451H33.959ZM11.5137 0C14.2559 0 16.4539 2.03009 16.4541 4.52051V10.5381C16.454 13.0445 14.256 15.0566 11.5137 15.0566H4.94043C2.21756 15.0566 5.84453e-05 13.0445 0 10.5381V4.52051C0.000164546 2.03009 2.21762 0 4.94043 0H11.5137ZM33.959 0C36.6816 0.000156832 38.8983 2.03018 38.8984 4.52051V10.5381C38.8984 13.0444 36.6817 15.0565 33.959 15.0566H27.3848C24.6425 15.0566 22.4444 13.0445 22.4443 10.5381V4.52051C22.4445 2.0301 24.6425 1.36034e-05 27.3848 0H33.959Z" fill="#605BFF"/>
</svg>
