<svg width="8" height="8" viewBox="0 0 8 8" fill="none" xmlns="http://www.w3.org/2000/svg">
<path d="M7.32925 6.92506C7.56136 6.92509 7.75014 7.11637 7.75014 7.35084C7.7501 7.58572 7.56133 7.77563 7.32925 7.77565H4.95034C4.71824 7.77565 4.52949 7.58574 4.52944 7.35084C4.52944 7.11636 4.71821 6.92506 4.95034 6.92506H7.32925ZM4.10073 0.694594C4.48089 0.20798 5.14397 0.163269 5.67886 0.587172L6.29409 1.07448C6.5459 1.27089 6.71409 1.52976 6.77163 1.80202C6.83795 2.10169 6.76646 2.39608 6.56753 2.65065L2.90737 7.37233C2.73936 7.58672 2.49102 7.70673 2.22573 7.7112L0.766747 7.72975C0.687263 7.72965 0.621331 7.67572 0.603661 7.59987L0.27163 6.16627C0.214152 5.90276 0.271593 5.6301 0.439598 5.42018L3.0353 2.07057C3.07951 2.01698 3.159 2.00837 3.21206 2.04811L4.30386 2.91432C4.3746 2.97238 4.47267 3.00389 4.57436 2.99049C4.79075 2.96346 4.9363 2.76667 4.91421 2.5569C4.90088 2.45005 4.84798 2.36108 4.77749 2.2942C4.75552 2.27645 3.7284 1.45551 3.71597 1.44557C3.64966 1.39198 3.63657 1.29337 3.6896 1.22682L4.10073 0.694594Z" fill="#5B93FF"/>
</svg>
